<?xml version="1.0" encoding="utf-8"?>
<!-- Generator: Adobe Illustrator 27.5.0, SVG Export Plug-In . SVG Version: 6.00 Build 0)  -->
<svg version="1.1" id="Layer_1" xmlns="http://www.w3.org/2000/svg" xmlns:xlink="http://www.w3.org/1999/xlink" x="0px" y="0px"
	 viewBox="0 0 1650 640" style="enable-background:new 0 0 1650 640;" xml:space="preserve">
<style type="text/css">
	.st0{fill:url(#XMLID_00000163065741309374643490000011580100069883352475_);}
	.st1{fill:#153D89;}
	.st2{fill:url(#XMLID_00000093896580707472043790000010756750297113721497_);}
	.st3{fill:url(#XMLID_00000023283243768917796610000015141677413945999532_);}
	.st4{fill:url(#XMLID_00000133500266803816650800000012717582724372712842_);}
</style>
<g>
	
		<radialGradient id="XMLID_00000010311910736313415130000008355801540081802925_" cx="1165.5684" cy="465.7497" r="136.1519" gradientTransform="matrix(1.5839 0 0 0.2697 -515.4724 430.9825)" gradientUnits="userSpaceOnUse">
		<stop  offset="0" style="stop-color:#000000;stop-opacity:0.2"/>
		<stop  offset="0.2119" style="stop-color:#040404;stop-opacity:0.1576"/>
		<stop  offset="0.4316" style="stop-color:#111010;stop-opacity:0.1137"/>
		<stop  offset="0.6547" style="stop-color:#252525;stop-opacity:6.905094e-02"/>
		<stop  offset="0.8789" style="stop-color:#424141;stop-opacity:2.421498e-02"/>
		<stop  offset="1" style="stop-color:#555454;stop-opacity:0"/>
	</radialGradient>
	
		<ellipse id="XMLID_00000163070881503683031490000001583161374098704769_" style="fill:url(#XMLID_00000010311910736313415130000008355801540081802925_);" cx="1330.7" cy="556.6" rx="299.7" ry="60.8"/>
	<g id="XMLID_00000176023783719533668390000009437726284118079660_">
		<polygon id="XMLID_00000021821993489678857160000001531791055500674205_" class="st1" points="80,545.9 31.9,407.4 19.6,407.4 
			19.6,557.3 26.4,557.3 26.4,411.8 77.6,557.3 84.3,557.3 135.4,411.8 135.4,557.3 142.2,557.3 142.2,407.4 130,407.4 81,548.8 		
			"/>
		<path id="XMLID_00000149364948400803169000000003924878549592033700_" class="st1" d="M244.9,550.6c-1.9-3.2-2.9-7-2.9-11.4v-65.4
			c0-6.5-3.8-12.2-11.2-16.8c-7.6-4.8-16.9-7.2-27.5-7.2c-10.4,0-19.4,2.5-26.8,7.4c-7.1,4.8-10.7,10.7-10.7,17.6v5.5h7.3v-4.5
			c0-5.6,3-10.5,8.9-14.6c6-3.8,13.1-5.8,21.3-5.8c8.6,0,16,2,22,6c6.3,4.1,9.4,9.2,9.4,15.1v9.6c0,3.8-3.6,6.8-10.9,9.4
			c-6.7,2.4-15.4,4.1-25.9,5.1c-10.5,1-19.3,4.5-26.3,10.4c-7,5.8-10.6,12.7-10.6,20.5c0,8.1,3.6,15.1,10.8,21
			c7.1,5.7,15.8,8.6,25.9,8.6c8.2,0,15.6-1.8,21.9-5.2c6.2-3.4,10.3-7.9,12.2-13.4l2.1-6.1v6.4c0,4.5,1.3,8.3,3.8,11.5
			c2.6,3.1,5.6,4.7,9.1,4.7c3.3,0,6.1-0.5,8.4-1.4v-2.3c0,0-0.1,0-0.1,0c-0.7,0.2-1.6,0.3-2.5,0.3
			C249.5,555.7,247,553.9,244.9,550.6z M234.7,523.7c-1.5,9.2-5.8,16.9-12.8,22.8c-7,6.1-15.1,9.1-24.1,9.1
			c-7.9,0-14.6-2.4-20.1-7.1c-5.7-4.6-8.6-10.3-8.6-17.1c0-6.6,2.8-12.3,8.3-17c5.4-4.9,12.3-7.7,20.3-8.4c9.5-0.8,17.2-1.9,23-3.3
			c5.9-1.3,10-2.9,12.2-4.8l1.8-1.5L234.7,523.7z"/>
		<path id="XMLID_00000106113354051272262940000017899610258140556471_" class="st1" d="M435.3,550.6c-1.9-3.2-2.9-7-2.9-11.4v-65.4
			c0-6.5-3.8-12.2-11.2-16.8c-7.6-4.8-16.9-7.2-27.5-7.2c-10.4,0-19.4,2.5-26.8,7.4c-7.1,4.8-10.7,10.7-10.7,17.6v5.5h7.3v-4.5
			c0-5.6,3-10.5,8.9-14.6c6-3.8,13.1-5.8,21.3-5.8c8.6,0,16,2,22,6c6.3,4.1,9.4,9.2,9.4,15.1v9.6c0,3.8-3.6,6.8-10.9,9.4
			c-6.7,2.4-15.4,4.1-25.9,5.1c-10.5,1-19.3,4.5-26.3,10.4c-7,5.8-10.6,12.7-10.6,20.5c0,8.1,3.6,15.1,10.8,21
			c7.1,5.7,15.8,8.6,25.9,8.6c8.2,0,15.6-1.8,21.9-5.2c6.2-3.4,10.3-7.9,12.2-13.4l2.1-6.1v6.4c0,4.5,1.3,8.3,3.8,11.5
			c2.6,3.1,5.6,4.7,9.1,4.7c3.3,0,6.1-0.5,8.4-1.4v-2.3c0,0-0.1,0-0.1,0c-0.7,0.2-1.6,0.3-2.5,0.3
			C439.9,555.7,437.3,553.9,435.3,550.6z M425.1,523.7c-1.5,9.2-5.8,16.9-12.8,22.8c-7,6.1-15.1,9.1-24.1,9.1
			c-7.9,0-14.6-2.4-20.1-7.1c-5.7-4.6-8.6-10.3-8.6-17.1c0-6.6,2.8-12.3,8.3-17c5.4-4.9,12.3-7.7,20.3-8.4c9.5-0.8,17.2-1.9,23-3.3
			c5.9-1.3,10-2.9,12.2-4.8l1.8-1.5L425.1,523.7z"/>
		<path id="XMLID_00000144309706162635752430000007821492609866393225_" class="st1" d="M519.8,456.2c-6.4-4.4-13.7-6.6-21.5-6.6
			c-13.5,0-24.5,5.1-32.5,15c-8.3,10.2-12.5,23.9-12.5,40.6c0,16.7,4.2,30.4,12.5,40.6c8,9.9,19,15,32.5,15c7.4,0,14.4-2.1,20.8-6.4
			c6.3-4,11-9.7,14-16.7l2.1-4.8v27.9c0,10.5-3.5,19-10.3,25.3c-6.6,6.2-15.7,9.4-26.9,9.4c-10.2,0-19-2.7-26.3-8
			c-6.9-5.3-10.6-11.8-10.9-19.1h-7.3c0.3,9.1,4.7,17,13,23.7c8.6,6.8,19.1,10.2,31.4,10.2c14.2,0,25.4-3.7,33.1-10.9
			C539,584.2,543,574,543,561V453.5h-7.8v26.1l-2.1-5.9C530.5,466.4,526,460.5,519.8,456.2z M524.5,540.2
			c-7.2,9.7-16,14.5-26.3,14.5c-11.3,0-20.3-4.6-27-13.8c-6.7-9-10.2-21.1-10.2-35.9c0-14.8,3.4-26.9,10.2-35.9
			c6.6-9.1,15.7-13.7,27-13.7c10.3,0,19.1,4.9,26.3,14.5c7.1,9.7,10.7,21.5,10.7,35.1C535.1,518.7,531.6,530.5,524.5,540.2z"/>
		<path id="XMLID_00000031902377241458484670000014382322762937141890_" class="st1" d="M415.6,381.5c7-8,10.5-17.9,10.5-29.2
			c0-8.9-2.3-16.8-6.8-23.5c-4.6-6.7-10.5-10.7-17.3-12l-5.7-1.1l5.7-1.1c5.1-0.9,9.3-4.7,12.6-11.1c3.5-6.6,5.3-14.5,5.3-23.6
			c0-9.5-2.9-17.8-8.6-24.7c-5.8-6.6-12.9-10-20.9-10h-63.5v148.2h63.5C399.9,393.6,408.5,389.5,415.6,381.5z M333.9,253.1h54.4
			c6.7,0,12.5,2.7,17.2,8c4.7,5.2,7.1,11.6,7.1,19c0,9-2.3,16.8-7,23.2c-4.7,6.5-10.5,9.8-17.2,9.8h-54.4V253.1z M333.9,386.1v-65.8
			h54.4c8.4,0,15.7,3.2,21.6,9.5c5.9,6.1,8.9,13.7,8.9,22.5c0,9.2-3,17.2-8.9,23.8c-5.9,6.6-13.2,10-21.6,10H333.9z"/>
		<path id="XMLID_00000015312462786651193390000018427308176394012801_" class="st1" d="M792.4,314.1c6.2-8,9.4-17.9,9.4-29.3
			c0-10.9-3.2-20.3-9.4-28c-6-7.6-13.4-11.5-22.1-11.5h-61.6v148.2h7.2v-67.4h54.4C779,326.1,786.4,322.1,792.4,314.1z M716,318.7
			v-65.5h52.8c7.2,0,13.4,3.3,18.4,9.8c5,6.6,7.5,14.6,7.5,23.7c0,8.8-2.5,16.4-7.5,22.5c-5,6.3-11.2,9.5-18.4,9.5H716z"/>
		
			<rect id="XMLID_00000102522513852962787560000003611578192158311324_" x="442.8" y="245.4" class="st1" width="7.2" height="148.2"/>
		<path id="XMLID_00000091714094141578675490000014373208842370350477_" class="st1" d="M1054.9,386.9c-2.1-3.2-3.2-7.1-3.2-11.5
			v-82h13.6v-5.7h-13.6V257h-7.2v30.7h-14.3v5.7h14.3v82c0,6.1,1.7,11.4,5.1,15.5c3.5,4.3,7.7,6.5,12.5,6.5c1.6,0,3.9-0.6,6.9-1.7
			v-4.8c-1.8,0.7-3.8,1.1-6.2,1.1C1059.6,391.9,1057,390.2,1054.9,386.9z"/>
		
			<rect id="XMLID_00000095316863805874539260000002979821498677560720_" x="912.6" y="287.7" class="st1" width="7.2" height="105.9"/>
		
			<rect id="XMLID_00000062896567793364703350000011202353159609639068_" x="912.6" y="245.4" class="st1" width="7.2" height="13.3"/>
		<path id="XMLID_00000060739765671714052910000013631303721904037506_" class="st1" d="M483.2,382.5L483.2,382.5
			c-5-5.3-7.6-11.6-7.6-18.8v-76h-7.2v76c0,9,3.3,16.7,9.7,23.1l0.2,0.2c6.4,6.3,14.2,9.4,23.2,9.4c7.2,0,13.9-1.9,19.8-5.7
			c6-3.9,10.4-9.1,13.2-15.5l2.1-4.9v23.2h7.2V287.7h-7.2v65.6c-1.7,10.6-5.9,19.5-12.5,26.3c-6.6,7-14.1,10.5-22.5,10.5
			C494.3,390.2,488.2,387.6,483.2,382.5z"/>
		<path id="XMLID_00000177461763245473373520000008332593954843288705_" class="st1" d="M1009.9,393.6h7.2v-74
			c0-9.4-3.4-17.7-10.2-24.6c-6.6-6.7-14.8-10.1-24.3-10.1c-6.8,0-13,1.9-18.6,5.6c-5.6,3.6-9.8,8.6-12.5,14.8l-2.1,4.7v-22.4h-7.2
			v105.9h7.2v-70.2c1.4-9.1,5.3-16.8,11.5-22.8c6.3-5.9,13.5-8.9,21.6-8.9c7.4,0,13.9,2.8,19.3,8.2c5.3,5.4,8,12.1,8,19.8V393.6z"/>
		<path id="XMLID_00000131352789414043521420000003760733408841363871_" class="st1" d="M1038.7,550.6c-2.1-3.2-3.2-7.1-3.2-11.5
			v-82h13.6v-5.7h-13.6v-30.7h-7.2v30.7H1014v5.7h14.3v82c0,6.1,1.7,11.4,5.1,15.5c3.5,4.3,7.7,6.5,12.5,6.5c1.6,0,3.9-0.6,6.9-1.7
			v-4.8c-1.8,0.7-3.8,1.1-6.2,1.1C1043.4,555.7,1040.8,554,1038.7,550.6z"/>
		<path id="XMLID_00000136401641863764573850000015840108461792306307_" class="st1" d="M966.4,448.7c-6.8,0-13,1.9-18.6,5.6
			c-5.6,3.6-9.8,8.6-12.5,14.8l-2.1,4.7v-22.4h-7.2v105.9h7.2v-70.2c1.4-9.1,5.3-16.8,11.5-22.8c6.3-5.9,13.5-8.9,21.6-8.9
			c7.4,0,13.9,2.8,19.3,8.2c5.3,5.4,8,12.1,8,19.8v74h7.2v-74c0-9.4-3.4-17.7-10.2-24.6C984,452,975.9,448.7,966.4,448.7z"/>
		<path id="XMLID_00000126325772392932721080000000445209815243910304_" class="st1" d="M303.6,448.7c-6.8,0-13,1.9-18.6,5.6
			c-5.6,3.6-9.8,8.6-12.5,14.8l-2.1,4.7v-22.4h-7.2v105.9h7.2v-70.2c1.4-9.1,5.3-16.8,11.5-22.8c6.3-5.9,13.5-8.9,21.6-8.9
			c7.4,0,13.9,2.8,19.2,8.2c5.3,5.4,8,12.1,8,19.8v74h7.2v-74c0-9.5-3.4-17.7-10.2-24.6C321.2,452,313.1,448.7,303.6,448.7z"/>
		<path id="XMLID_00000143595292468048084810000014366922549097112982_" class="st1" d="M771.9,448.7c-7.5,0-14.5,2-20.8,5.9
			c-6.2,3.8-10.9,9-13.9,15.5l-1.3,2.7l-0.7-2.9c-1.6-6.1-5.3-11.3-10.9-15.4c-5.5-3.9-12-5.9-19.2-5.9c-6.1,0-11.9,1.9-17.2,5.6
			c-5.4,3.6-9.6,8.6-12.5,14.8l-2.1,4.4v-22h-7.9v105.9h7.9v-70.2c1.7-9.4,5.6-17.3,11.6-23.6c6.2-6.1,13.4-9.2,21.2-9.2
			c6.7,0,12.4,2.7,17.2,8c4.7,5.2,7.1,11.6,7.1,19v76h7.9v-72.2c1.6-9,5.6-16.4,11.9-22.1c6.4-5.7,13.7-8.6,21.8-8.6
			c7.2,0,13.3,2.7,18.2,7.9c5,5.3,7.6,11.7,7.6,19v76h7.9v-76c0-9-3.3-16.7-9.7-23.1C789.2,451.9,781.1,448.7,771.9,448.7z"/>
		<path id="XMLID_00000118370760005336096350000008737924124069762448_" class="st1" d="M605,390.2c-11.6,0-21-4.6-28-13.6
			c-6.9-8.9-10.4-21-10.4-35.9v-1.1h84.6v-3.7c0-15.7-4.3-28.4-12.7-37.8c-8.4-9.3-19.7-14.1-33.5-14.1c-13.9,0-25.1,5.2-33.5,15.3
			c-8.4,10.4-12.7,24.3-12.7,41.4c0,17.1,4.3,31,12.7,41.4c8.4,10.2,19.6,15.3,33.5,15.3c11.7,0,22-3.3,30.7-9.7
			c8.3-6.1,13.4-13.8,15.3-22.9h-7.9c-2.8,7.5-7.7,13.6-14.6,18.3C621.6,387.8,613.7,390.2,605,390.2z M566.6,328.2
			c0.8-10.6,5.1-19.6,12.5-26.9c7.3-7.1,16-10.7,25.9-10.7c9.9,0,18.6,3.5,26.1,10.4c7.3,7.1,11.4,15.9,12.3,26.1v5h-76.8V328.2z"/>
		<path id="XMLID_00000109741858079395308320000009232737737807598513_" class="st1" d="M605,553.9c-11.6,0-21-4.6-28-13.6
			c-6.9-8.9-10.4-21-10.4-35.9v-1.1h84.6v-3.7c0-15.7-4.3-28.4-12.7-37.8c-8.4-9.3-19.7-14.1-33.5-14.1c-13.9,0-25.1,5.2-33.5,15.3
			c-8.4,10.4-12.7,24.3-12.7,41.4c0,17.1,4.3,31,12.7,41.4c8.4,10.2,19.6,15.3,33.5,15.3c11.7,0,22-3.3,30.7-9.7
			c8.3-6.1,13.4-13.8,15.3-22.9h-7.9c-2.8,7.5-7.7,13.6-14.6,18.3C621.6,551.5,613.7,553.9,605,553.9z M566.6,491.9
			c0.8-10.6,5.1-19.6,12.5-26.9c7.3-7.1,16-10.7,25.9-10.7c9.9,0,18.6,3.5,26.1,10.4c7.3,7.1,11.4,15.9,12.3,26.1v5h-76.8V491.9z"/>
		<path id="XMLID_00000047779058676563094650000004298571842377181878_" class="st1" d="M865.6,447.6c-13.9,0-25.1,5.2-33.5,15.3
			c-8.4,10.4-12.7,24.3-12.7,41.4c0,17.1,4.3,31,12.7,41.4c8.4,10.2,19.6,15.3,33.5,15.3c11.7,0,22-3.3,30.7-9.7
			c8.3-6.1,13.4-13.8,15.3-22.9h-7.9c-2.8,7.5-7.7,13.6-14.6,18.3c-7,4.7-14.9,7-23.5,7c-11.6,0-21-4.6-28-13.6
			c-6.9-8.9-10.4-21-10.4-35.9v-1.1h84.6v-3.7c0-15.7-4.3-28.4-12.7-37.8C890.7,452.4,879.5,447.6,865.6,447.6z M904,495.8h-76.8
			v-3.9c0.9-10.6,5.1-19.6,12.5-26.9c7.3-7.1,16-10.7,25.9-10.7c9.9,0,18.6,3.5,26.1,10.4c7.3,7.1,11.4,15.9,12.3,26.1V495.8z"/>
		<path id="XMLID_00000062162673429545835520000009731734613146852748_" class="st1" d="M888.2,380.5c8.7-9.9,13.2-23.3,13.2-39.9
			c0-17.1-4.4-31-13.2-41.4c-8.9-10.2-20.7-15.3-35.3-15.3c-14.7,0-26.6,5.2-35.3,15.3c-8.9,10.4-13.4,24.3-13.4,41.4
			c0,16.6,4.5,30,13.4,39.9c8.7,9.9,20.6,14.8,35.3,14.8C867.5,395.4,879.4,390.4,888.2,380.5z M812.1,340.7
			c0-15.1,3.8-27.2,11.2-36.2c7.3-9.2,17.3-13.8,29.7-13.8c12.2,0,22.2,4.7,29.7,13.8c7.3,9,10.9,21.1,10.9,36.2
			c0,14.6-3.7,26.4-11,35.2c-7.5,8.8-17.5,13.3-29.7,13.3c-12.4,0-22.4-4.5-29.7-13.3C815.8,367.1,812.1,355.2,812.1,340.7z"/>
	</g>
	<g id="XMLID_00000038374397165542223760000016859501119344905616_">
		
			<linearGradient id="XMLID_00000080915592452849829700000005675246116543837604_" gradientUnits="userSpaceOnUse" x1="1512.9553" y1="206.5491" x2="1145.0541" y2="206.5491">
			<stop  offset="8.832910e-02" style="stop-color:#3F84C5"/>
			<stop  offset="0.5234" style="stop-color:#153D89"/>
			<stop  offset="0.8701" style="stop-color:#1B2D70"/>
		</linearGradient>
		
			<circle id="XMLID_00000018946255432111036710000015729652592719461557_" style="fill:url(#XMLID_00000080915592452849829700000005675246116543837604_);" cx="1329" cy="206.5" r="184"/>
		<g id="XMLID_00000104679518322100625770000002043208423450463369_">
			
				<linearGradient id="XMLID_00000127733381529216702480000014883682384697177746_" gradientUnits="userSpaceOnUse" x1="1190.7638" y1="255.864" x2="1484.3966" y2="106.2506">
				<stop  offset="0" style="stop-color:#263081"/>
				<stop  offset="0.1231" style="stop-color:#213583"/>
				<stop  offset="0.7416" style="stop-color:#5880C0"/>
				<stop  offset="1" style="stop-color:#8BA5D6"/>
			</linearGradient>
			
				<path id="XMLID_00000003086064357753328600000013354765798921446830_" style="fill:url(#XMLID_00000127733381529216702480000014883682384697177746_);" d="
				M1343.3,329.1c118.8,0.1,149.9-42.9,169.1-111.3c0.2-3.8,0.6-7.5,0.6-11.3c0-101.6-82.4-184-184-184
				c-42.6,0-81.7,14.6-112.9,38.9c-24.6,24.9-55,56-56.4,99.1C1156.8,246.8,1250.9,329.1,1343.3,329.1z"/>
		</g>
		
			<linearGradient id="XMLID_00000049928317263556943080000006312652641652207766_" gradientUnits="userSpaceOnUse" x1="1316.3888" y1="179.0847" x2="1404.8843" y2="52.7001">
			<stop  offset="0" style="stop-color:#4B76B9"/>
			<stop  offset="0.9707" style="stop-color:#E9ECF7"/>
		</linearGradient>
		
			<path id="XMLID_00000075849822796398054450000011092625758789721493_" style="fill:url(#XMLID_00000049928317263556943080000006312652641652207766_);" d="
			M1481.7,158.3c-13,37.3-77.8,48.5-144.7,25.1c-66.9-23.4-110.5-72.6-97.5-109.9c13-37.3,77.8-48.5,144.7-25.1
			C1451.1,71.8,1494.8,121,1481.7,158.3z"/>
	</g>
</g>
</svg>
