<?xml version="1.0" encoding="utf-8"?>
<!-- Generator: Adobe Illustrator 24.0.1, SVG Export Plug-In . SVG Version: 6.00 Build 0)  -->
<svg version="1.1" id="Layer_1" xmlns="http://www.w3.org/2000/svg" xmlns:xlink="http://www.w3.org/1999/xlink" x="0px" y="0px"
	 width="304px" height="95px" viewBox="0 0 304 95" style="enable-background:new 0 0 304 95;" xml:space="preserve">
<style type="text/css">
	.st0{fill:#231F20;}
</style>
<rect x="78.8" y="68.3" transform="matrix(0.4482 -0.894 0.894 0.4482 -9.2633 126.9999)" class="st0" width="38.8" height="5.5"/>
<rect x="112.9" y="51.6" transform="matrix(0.894 -0.4481 0.4481 0.894 -19.5583 59.3313)" class="st0" width="5.5" height="38.8"/>
<rect x="89.5" y="85.6" class="st0" width="34.8" height="5.5"/>
<path class="st0" d="M24.7,17.3c0-5.2-4.4-7.7-9.6-7.7H9v15.5h6.2C20.3,25.1,24.7,22.5,24.7,17.3 M14.9,4c8.4,0,15.7,4,15.7,13.3
	c0,8.4-7.3,13.3-15.6,13.3H9v13.9H3.2V4H14.9z"/>
<path class="st0" d="M44.3,11.9l-6.2,18.4h12.4L44.3,11.9z M47.4,4l13.9,40.5h-6.2l-3-8.7H36.3l-3,8.7h-6.2L41.1,4H47.4z"/>
<polygon class="st0" points="54.5,9.6 54.5,4 85.7,4 85.7,9.6 73,9.6 73,44.5 67.2,44.5 67.2,9.6 "/>
<path class="st0" d="M110.2,16c0-4.4-3.5-6.4-8.2-6.4h-6.9v13h6.9C106.7,22.5,110.2,20.7,110.2,16 M101.9,4c7.5,0,14.3,3.7,14.3,12
	c0,6.4-5,10.5-9.3,11.3l13.5,17.2H113l-12.8-16.4h-5.2v16.4h-5.8V4H101.9z"/>
<path class="st0" d="M155,24.3c0-9.1-6.4-15.6-14.4-15.6c-7.9,0-14.3,6.5-14.4,15.6c-0.1,9,6.3,15.5,14.4,15.5
	C148.7,39.8,155,33.3,155,24.3 M119.9,24.4c0-11.9,8.9-21.1,20.7-21.1s20.7,9.2,20.7,21.1c0,12-8.8,21-20.7,21
	C128.7,45.4,119.9,36.4,119.9,24.4"/>
<polygon class="st0" points="173.7,4 191.6,35.4 191.7,35.4 191.7,4 197.5,4 197.5,44.5 190,44.5 172.1,12.7 172,12.7 172,44.5 
	166.2,44.5 166.2,4 "/>
<path class="st0" d="M218.3,11.9l-6.2,18.4h12.4L218.3,11.9z M221.5,4l13.9,40.5h-6.2l-3-8.7h-15.9l-3,8.7h-6.2l14-40.5H221.5z"/>
<polygon class="st0" points="229,9.8 229,4.2 260.2,4.2 260.2,9.8 247.5,9.8 247.5,44.7 241.7,44.7 241.7,9.8 "/>
<path class="st0" d="M294.5,24.3c0-9.1-6.4-15.6-14.4-15.6c-7.9,0-14.3,6.5-14.4,15.6c-0.1,9,6.3,15.5,14.4,15.5
	C288.1,39.8,294.5,33.3,294.5,24.3 M259.4,24.4c0-11.9,8.9-21.1,20.7-21.1c11.8,0,20.7,9.2,20.7,21.1c0,12-8.8,21-20.7,21
	C268.2,45.4,259.4,36.4,259.4,24.4"/>
<path class="st0" d="M80.7,51.1v24.3c0,3.4-0.7,6.4-2.2,8.9c-3,5-8,7.4-14.1,7.4c-4.4,0-8.4-1.5-11.4-4.2c-3-2.7-4.8-7-4.8-12.2
	V51.1h5.4v24.2c0,5.7,3.5,11.1,10.8,11.1c3.5,0,6.4-1.3,8.2-3.3c1.8-2.1,2.7-4.8,2.7-7.8V51.1H80.7z"/>
<path class="st0" d="M163.2,52.5c3,1.7,5.4,4,7.3,7l-4.9,2.8c-1.3-2.2-3.1-3.9-5.3-5.2c-2.2-1.3-4.5-1.9-7.1-1.9
	c-2.7,0-5.2,0.7-7.4,2.1c-2.2,1.4-4,3.3-5.3,5.7c-1.3,2.4-1.9,5.1-1.9,8c0,2.9,0.6,5.6,1.9,7.9c1.3,2.4,3.1,4.3,5.3,5.6
	c2.2,1.4,4.7,2.1,7.4,2.1c2.8,0,5.3-0.6,7.4-1.9c2.1-1.3,4.1-3.4,6.1-6.4l4.7,2.7c-1.9,3.2-4.4,5.8-7.6,7.8c-3.2,2-6.7,3-10.7,3
	c-2.8,0-5.6-0.5-8.1-1.6c-2.5-1.1-4.8-2.5-6.6-4.4c-1.8-1.8-3.3-4.1-4.4-6.7c-1.1-2.6-1.6-5.3-1.6-8.2c0-2.9,0.5-5.6,1.6-8.2
	c1.1-2.6,2.5-4.8,4.4-6.7c1.8-1.9,4.1-3.3,6.6-4.4c2.6-1.1,5.3-1.6,8.2-1.6C156.8,49.9,160.2,50.8,163.2,52.5"/>
<path class="st0" d="M127,53.7c0,1.5-1.2,2.7-2.7,2.7c-1.5,0-2.7-1.2-2.7-2.7c0-1.5,1.2-2.7,2.7-2.7C125.8,50.9,127,52.2,127,53.7"
	/>
<path class="st0" d="M127,71c0,1.5-1.2,2.7-2.7,2.7c-1.5,0-2.7-1.2-2.7-2.7c0-1.5,1.2-2.7,2.7-2.7C125.8,68.3,127,69.5,127,71"/>
<path class="st0" d="M127,88.3c0,1.5-1.2,2.7-2.7,2.7c-1.5,0-2.7-1.2-2.7-2.7c0-1.5,1.2-2.7,2.7-2.7C125.8,85.6,127,86.8,127,88.3"
	/>
<path class="st0" d="M92.3,53.7c0,1.5-1.2,2.7-2.7,2.7c-1.5,0-2.7-1.2-2.7-2.7c0-1.5,1.2-2.7,2.7-2.7C91,50.9,92.3,52.2,92.3,53.7"
	/>
<path class="st0" d="M92.3,71c0,1.5-1.2,2.7-2.7,2.7c-1.5,0-2.7-1.2-2.7-2.7c0-1.5,1.2-2.7,2.7-2.7C91,68.3,92.3,69.5,92.3,71"/>
<path class="st0" d="M92.3,88.3c0,1.5-1.2,2.7-2.7,2.7c-1.5,0-2.7-1.2-2.7-2.7c0-1.5,1.2-2.7,2.7-2.7C91,85.6,92.3,86.8,92.3,88.3"
	/>
<path class="st0" d="M109.7,53.7c0,1.5-1.2,2.7-2.7,2.7s-2.7-1.2-2.7-2.7c0-1.5,1.2-2.7,2.7-2.7S109.7,52.2,109.7,53.7"/>
<path class="st0" d="M109.7,71c0,1.5-1.2,2.7-2.7,2.7s-2.7-1.2-2.7-2.7c0-1.5,1.2-2.7,2.7-2.7S109.7,69.5,109.7,71"/>
<path class="st0" d="M109.7,88.3c0,1.5-1.2,2.7-2.7,2.7s-2.7-1.2-2.7-2.7c0-1.5,1.2-2.7,2.7-2.7S109.7,86.8,109.7,88.3"/>
<polygon class="st0" points="3.3,91 3.3,50.9 10.3,50.9 22.8,75.4 22.9,75.4 34.8,50.9 41.9,50.9 41.9,91 36.5,91 36.5,59.9 
	36.4,59.9 24.7,83.1 20.5,83.1 8.8,60.2 8.7,60.2 8.7,91 "/>
</svg>
