<?xml version="1.0" encoding="UTF-8"?>
<svg id="Capa_1" xmlns="http://www.w3.org/2000/svg" version="1.1" viewBox="0 0 150 50">
  <!-- Generator: Adobe Illustrator 29.5.0, SVG Export Plug-In . SVG Version: 2.1.0 Build 137)  -->
  <path d="M26.12,42.18l.23,1.03h-.93l.25-1.03c.14-.55.19-.97.23-1.28h0c.03.31.08.73.21,1.28M30.72,42.82h-.67v1.56h.67c.5,0,.71-.25.71-.79,0-.49-.16-.77-.71-.77M31.29,41.07c0-.45-.19-.66-.62-.66h-.62v1.37h.63c.45,0,.61-.25.61-.71M39.46,48.09H1.79V1.66h37.67v46.43ZM4.43,36.7h26.37c3.33,0,6.03-2.7,6.03-6.03V4.3s-26.37,0-26.37,0c-3.33,0-6.03,2.43-6.03,5.76v26.64ZM7.97,43.62c0-1.35-.81-1.68-1.77-1.98-.54-.18-.68-.33-.68-.74,0-.38.24-.58.68-.58s.68.07,1.05.3l.45-.99c-.45-.27-.89-.42-1.61-.42-1.11,0-1.88.56-1.88,1.8s.63,1.61,1.61,1.93c.55.18.8.31.8.79,0,.45-.26.72-.85.72-.49,0-.95-.17-1.36-.47l-.43,1.02c.39.31,1.12.57,1.91.57,1.55,0,2.08-.79,2.08-1.95M12.42,44.98l-.55-.96c-.25.27-.57.43-.99.43-.73,0-1.03-.41-1.03-2.13,0-1.61.19-2,1.02-2,.38,0,.69.13.96.36l.5-1.01c-.32-.28-.85-.48-1.53-.48-1.51,0-2.36.82-2.36,3.2,0,2.22.75,3.17,2.39,3.17.78,0,1.24-.26,1.6-.59M16.94,39.32h-1.28v2.33h-1.42v-2.33h-1.28v6.14h1.28v-2.68h1.42v2.68h1.28v-6.14ZM22.83,45.46l1.18-6.14h-1.3l-.34,2.06c-.15.94-.19,1.85-.23,2.45h0c-.06-.67-.17-1.61-.3-2.29l-.42-2.22h-1.09l-.42,2.22c-.2,1.05-.27,1.8-.31,2.28h0c-.02-.29-.08-1.47-.25-2.42l-.37-2.08h-1.33l1.16,6.14h1.34l.49-2.58c.11-.59.18-1.31.2-1.68h.02c.03.4.08,1.06.2,1.69l.48,2.57h1.32ZM28.2,45.46l-1.61-6.14h-1.33l-1.69,6.14h1.31l.29-1.25h1.39l.27,1.25h1.36ZM32.81,43.66c0-.88-.44-1.33-.99-1.46.6-.25.77-.63.77-1.3,0-1.09-.61-1.57-1.56-1.57h-2.23v6.14h2.15c1.27,0,1.86-.56,1.86-1.8M36.97,44.33h-2.16v-1.52h1.63v-1.09h-1.63v-1.28h2.02v-1.12h-3.3v6.14h3.44v-1.13ZM34.18,30.86c.05-1.89-.92-2.88-2.88-4.83,0,0-12.83-12.79-13.15-13.1-.32-.32-.17-.98.43-.99.29,0,12.24,0,12.24,0,1.58,0,3.36-1.54,3.36-3.34v-1.65H10.51c-2.05,0-3.41,1.78-3.44,3.21-.05,1.89.92,2.88,2.88,4.83,0,0,12.83,12.79,13.15,13.1.32.32.17.98-.43.99-.29,0-12.24,0-12.24,0-1.58,0-3.36,1.55-3.36,3.34v1.65h23.68c2.04,0,3.41-1.78,3.44-3.21" fill="#007934"/>
  <g>
    <path d="M50.2,18.43l.63-1.27c.71.52,1.35.77,2.23.77,1.11,0,1.57-.52,1.57-1.35,0-.97-.54-1.25-1.56-1.61-1.6-.56-2.46-1.18-2.46-2.94s1.14-2.66,2.87-2.66c1.11,0,1.8.24,2.46.67l-.63,1.28c-.57-.38-1.03-.53-1.71-.53-.82,0-1.31.36-1.31,1.14s.31,1.09,1.32,1.43c1.52.53,2.76,1.06,2.76,3.09,0,1.63-.78,2.91-3.17,2.91-1.21,0-2.32-.4-2.99-.93Z" fill="#007934"/>
    <path d="M57.64,15.65c0-2.65,1.03-3.69,2.87-3.69.86,0,1.49.24,2.09.81l-.82,1.06c-.36-.38-.68-.57-1.2-.57-.9,0-1.24.38-1.24,2.37s.35,2.45,1.31,2.45c.56,0,.86-.25,1.23-.58l.78,1.04c-.52.52-1.16.84-2.1.84-1.94,0-2.91-1.18-2.91-3.72Z" fill="#007934"/>
    <path d="M63.98,9.05h1.59v3.73c.52-.47,1.11-.82,1.92-.82,1.11,0,1.77.51,1.77,1.84v5.39h-1.59v-4.98c0-.74-.24-.92-.75-.92s-.95.26-1.35.63v5.28h-1.59v-10.13Z" fill="#007934"/>
    <path d="M70.44,12.14h1.63l.7,3.06c.17.75.29,1.85.32,2.14h.01c.03-.26.17-1.28.35-1.99l.79-3.22h1.53l.77,3.23c.17.7.33,1.71.36,1.96h.01c.03-.28.18-1.39.33-2.12l.68-3.08h1.6l-1.89,7.04h-1.49l-.82-3.35c-.15-.65-.29-1.53-.36-1.96h-.01c-.07.45-.18,1.25-.36,1.99l-.82,3.33h-1.49l-1.84-7.04Z" fill="#007934"/>
    <path d="M80.31,17.14c0-1.61.95-2.32,3.15-2.32h.5v-.4c0-.74-.1-1.14-.89-1.14-.7,0-1.36.31-1.95.64l-.58-1.13c.75-.49,1.57-.82,2.7-.82,1.57,0,2.31.61,2.31,2.2v5.03h-1.24l-.2-.61c-.39.42-.93.79-1.7.79-1.41,0-2.1-.81-2.1-2.23ZM83.96,17.63v-1.78h-.25c-1.52,0-1.78.39-1.78,1.28,0,.81.24,1.09.84,1.09.53,0,.92-.31,1.2-.58Z" fill="#007934"/>
    <path d="M88.87,18.53l-.18.65h-1.27v-10.13h1.59v3.7c.39-.42,1.02-.79,1.74-.79,1.42,0,2.38.78,2.38,3.61s-.79,3.8-2.41,3.8c-.77,0-1.46-.39-1.85-.84ZM91.44,15.65c0-1.99-.26-2.39-1.1-2.39-.57,0-.95.26-1.32.63v3.65c.31.29.74.53,1.23.53.89,0,1.2-.38,1.2-2.41Z" fill="#007934"/>
    <path d="M94.33,15.65c0-2.67,1.09-3.69,2.85-3.69,1.89,0,2.78,1.06,2.78,3.63v.52h-3.95c.06,1.61.45,1.98,1.45,1.98.72,0,1.17-.29,1.61-.63l.75,1.09c-.61.52-1.34.82-2.35.82-2.1,0-3.15-1.07-3.15-3.72ZM96.03,14.98h2.31c-.01-1.36-.26-1.84-1.14-1.84-.71,0-1.09.36-1.17,1.84Z" fill="#007934"/>
    <path d="M104.94,9.55h2.81c2.12,0,3.23.88,3.23,2.92,0,1.89-.77,3.06-3.06,3.06h-1.3v3.65h-1.68v-9.63ZM107.83,14.15c.96,0,1.41-.36,1.41-1.56s-.42-1.61-1.39-1.61h-1.21v3.17h1.2Z" fill="#007934"/>
    <path d="M112.46,9.05h1.59v3.73c.52-.47,1.11-.82,1.92-.82,1.11,0,1.77.51,1.77,1.84v5.39h-1.59v-4.98c0-.74-.24-.92-.75-.92s-.95.26-1.35.63v5.28h-1.59v-10.13Z" fill="#007934"/>
    <path d="M119.19,17.14c0-1.61.95-2.32,3.15-2.32h.5v-.4c0-.74-.1-1.14-.89-1.14-.7,0-1.36.31-1.95.64l-.58-1.13c.75-.49,1.57-.82,2.7-.82,1.57,0,2.31.61,2.31,2.2v5.03h-1.24l-.2-.61c-.39.42-.93.79-1.7.79-1.41,0-2.1-.81-2.1-2.23ZM122.84,17.63v-1.78h-.25c-1.52,0-1.78.39-1.78,1.28,0,.81.24,1.09.84,1.09.53,0,.92-.31,1.2-.58Z" fill="#007934"/>
    <path d="M126.31,12.14h1.27l.18.89c.47-.61,1.1-1.02,1.84-1.02.15,0,.32.03.42.06l-.25,1.63c-.15-.08-.35-.13-.57-.13-.54,0-.89.17-1.3.52v5.09h-1.59v-7.04Z" fill="#007934"/>
    <path d="M131.19,12.14h1.27l.17.75c.59-.54,1.18-.93,1.98-.93.71,0,1.22.28,1.49.9.61-.54,1.24-.9,2.01-.9,1.02,0,1.67.5,1.67,1.81v5.42h-1.59v-5c0-.74-.19-.9-.67-.9-.4,0-.85.25-1.24.58v5.32h-1.59v-5c0-.74-.2-.9-.67-.9-.42,0-.83.28-1.24.63v5.28h-1.59v-7.04Z" fill="#007934"/>
    <path d="M141.22,17.14c0-1.61.95-2.32,3.15-2.32h.5v-.4c0-.74-.1-1.14-.89-1.14-.7,0-1.36.31-1.95.64l-.58-1.13c.75-.49,1.57-.82,2.7-.82,1.57,0,2.31.61,2.31,2.2v5.03h-1.24l-.2-.61c-.39.42-.93.79-1.7.79-1.41,0-2.1-.81-2.1-2.23ZM144.87,17.63v-1.78h-.25c-1.52,0-1.78.39-1.78,1.28,0,.81.24,1.09.84,1.09.53,0,.92-.31,1.2-.58Z" fill="#007934"/>
  </g>
  <g>
    <path d="M50.94,24.44h2.32l1.31,4.48c.25.85.35,1.6.39,2.19h.03c.06-.57.12-1.34.38-2.19l1.28-4.48h2.41v9.63h-1.64v-4.94c0-1.6.07-2.77.11-3.3h-.03c-.08.54-.38,1.95-.72,3.06l-1.1,3.48h-1.54l-1.09-3.33c-.36-1.13-.61-2.69-.7-3.22h-.03c.04.51.11,1.93.11,3.33v4.91h-1.49v-9.63Z" fill="#007934"/>
    <path d="M60.75,30.54c0-2.67,1.09-3.69,2.85-3.69,1.89,0,2.78,1.06,2.78,3.63v.52h-3.95c.06,1.61.45,1.98,1.45,1.98.72,0,1.17-.29,1.61-.63l.75,1.09c-.61.52-1.34.82-2.35.82-2.1,0-3.15-1.07-3.15-3.72ZM62.03,25.36l2.67-1.92.79,1.39-2.94,1.43-.53-.9ZM62.44,29.87h2.31c-.01-1.36-.26-1.84-1.14-1.84-.71,0-1.09.36-1.17,1.84Z" fill="#007934"/>
    <path d="M69.35,30.24l-1.91-3.22h1.84l.49.96c.28.54.4.88.57,1.28h.03c.11-.35.24-.74.49-1.28l.45-.96h1.78l-1.91,3.19,2.17,3.86h-1.84l-.71-1.42c-.25-.5-.42-.95-.56-1.28h-.03c-.12.35-.25.68-.56,1.28l-.72,1.42h-1.78l2.2-3.83Z" fill="#007934"/>
    <path d="M74.91,28.22l-.92-.17v-1.03h2.49v7.04h-1.57v-5.85ZM74.67,24.95c0-.57.45-1.03,1.02-1.03s1.02.45,1.02,1.03-.45,1.02-1.03,1.02-1-.45-1-1.02Z" fill="#007934"/>
    <path d="M78.07,30.54c0-2.65,1.03-3.69,2.87-3.69.86,0,1.49.24,2.09.81l-.82,1.06c-.36-.38-.68-.57-1.2-.57-.9,0-1.24.38-1.24,2.37s.35,2.45,1.31,2.45c.56,0,.86-.25,1.23-.58l.78,1.04c-.52.52-1.16.84-2.1.84-1.94,0-2.91-1.18-2.91-3.72Z" fill="#007934"/>
    <path d="M84.02,30.54c0-2.66,1.13-3.69,2.95-3.69s2.98,1.06,2.98,3.7-1.14,3.7-2.96,3.7-2.96-1.07-2.96-3.72ZM88.25,30.54c0-2.02-.36-2.49-1.28-2.49s-1.27.49-1.27,2.51.36,2.51,1.28,2.51,1.27-.53,1.27-2.52Z" fill="#007934"/>
    <path d="M91.08,27.77c0-2.21,1.28-3.66,3.16-3.66s3.16,1.45,3.16,3.66-1.28,3.63-3.16,3.63-3.16-1.42-3.16-3.63ZM96.59,27.77c0-1.88-.83-2.97-2.35-2.97s-2.35,1.09-2.35,2.97.82,2.95,2.35,2.95,2.35-1.09,2.35-2.95ZM92.94,25.71h1.28c1.02,0,1.42.45,1.42,1.16,0,.67-.26.93-.68,1.04.28.1.42.32.53.72l.29,1.1h-.99l-.28-1.16c-.1-.36-.22-.46-.49-.46h-.17v1.61h-.92v-4.02ZM94.25,27.42c.32,0,.43-.15.43-.49,0-.31-.14-.45-.43-.45h-.39v.93h.39Z" fill="#007934"/>
  </g>
</svg>