<?xml version="1.0" standalone="no"?>
<!DOCTYPE svg PUBLIC "-//W3C//DTD SVG 20010904//EN"
 "http://www.w3.org/TR/2001/REC-SVG-20010904/DTD/svg10.dtd">
<svg version="1.0" xmlns="http://www.w3.org/2000/svg"
 width="180.000000pt" height="180.000000pt" viewBox="0 0 180.000000 180.000000"
 preserveAspectRatio="xMidYMid meet">

<g transform="translate(0.000000,180.000000) scale(0.100000,-0.100000)"
fill="#000000" stroke="none">
<path d="M315 1180 l-280 -280 280 -280 280 -280 75 75 75 75 77 -77 78 -78
37 38 38 37 -245 245 -245 245 132 132 133 132 40 -39 40 -39 -92 -93 -93 -93
280 -280 280 -280 280 280 280 280 -280 280 -280 280 -75 -75 -75 -75 -78 77
-77 78 -34 -35 -35 -35 241 -248 241 -248 -131 -132 -132 -131 -40 39 -40 39
92 93 93 93 -280 280 -280 280 -280 -280z m1250 -210 l69 -70 -69 -70 -69 -70
-85 0 -85 0 69 70 69 70 -69 70 -69 70 85 0 85 0 69 -70z m-605 -15 l55 -55
-58 -58 -57 -57 -57 57 -58 58 55 55 c30 30 57 55 60 55 3 0 30 -25 60 -55z
m-379 -292 l98 -98 -39 -45 -39 -45 -143 143 -143 142 84 0 84 0 98 -97z"/>
</g>
</svg>
